<?xml version="1.0" standalone="no"?>
<!DOCTYPE svg PUBLIC "-//W3C//DTD SVG 20010904//EN"
 "http://www.w3.org/TR/2001/REC-SVG-20010904/DTD/svg10.dtd">
<svg version="1.0" xmlns="http://www.w3.org/2000/svg"
 width="100.000000pt" height="100.000000pt" viewBox="0 0 512.000000 512.000000"
 preserveAspectRatio="xMidYMid meet">

<g transform="translate(0.000000,512.000000) scale(0.100000,-0.100000)"
fill="#000000" stroke="none">
<path d="M3135 5095 c-22 -22 -25 -32 -25 -105 0 -73 3 -83 25 -105 13 -14 36
-25 50 -25 14 0 37 11 50 25 22 22 25 32 25 105 0 73 -3 83 -25 105 -13 14
-36 25 -50 25 -14 0 -37 -11 -50 -25z"/>
<path d="M2645 4965 c-14 -13 -25 -34 -25 -47 0 -34 72 -150 103 -168 24 -13
30 -13 54 0 15 9 34 27 42 41 14 24 12 31 -15 84 -56 112 -108 142 -159 90z"/>
<path d="M3638 4979 c-25 -14 -90 -135 -90 -167 0 -29 42 -72 71 -72 30 0 66
35 99 98 38 72 40 95 7 127 -25 26 -58 31 -87 14z"/>
<path d="M2297 4619 c-10 -6 -23 -22 -28 -37 -17 -44 6 -78 77 -118 76 -42
117 -43 147 -2 31 42 15 74 -63 126 -65 42 -100 50 -133 31z"/>
<path d="M3960 4600 c-62 -34 -100 -72 -100 -100 0 -30 43 -72 72 -72 40 0
157 69 169 98 18 50 -16 104 -66 104 -11 0 -45 -14 -75 -30z"/>
<path d="M2163 4125 c-29 -20 -37 -59 -19 -94 19 -37 32 -41 120 -41 90 0 126
22 126 74 0 57 -32 76 -126 76 -54 0 -86 -5 -101 -15z"/>
<path d="M4002 4117 c-31 -33 -29 -80 4 -106 22 -17 41 -21 106 -21 70 0 82 3
103 25 14 13 25 36 25 50 0 14 -11 37 -25 50 -22 23 -32 25 -108 25 -74 0 -86
-3 -105 -23z"/>
<path d="M1885 3816 c-41 -18 -83 -69 -90 -109 -4 -18 -5 -112 -3 -209 3 -160
5 -179 24 -204 43 -59 68 -69 174 -72 l99 -4 3 -178 c3 -162 5 -181 24 -206
31 -43 67 -65 112 -71 l42 -6 0 -88 c0 -49 -2 -89 -6 -89 -3 0 -31 17 -62 39
-131 88 -314 164 -495 203 -84 18 -133 22 -282 22 -201 0 -308 -17 -472 -75
-82 -29 -258 -114 -294 -142 -41 -32 -46 -80 -11 -119 25 -29 66 -21 174 36
111 59 236 104 363 132 111 24 369 24 480 0 221 -48 441 -153 571 -273 l41
-38 -4 -92 -5 -93 -61 56 c-146 133 -327 234 -504 281 -88 24 -116 26 -278 27
-164 0 -189 -3 -280 -27 -140 -38 -317 -128 -430 -220 -178 -145 -322 -369
-382 -592 -24 -91 -27 -116 -27 -280 0 -164 3 -189 27 -280 38 -140 128 -317
220 -430 146 -179 371 -324 592 -381 124 -32 313 -42 435 -25 74 11 204 45
253 66 15 6 17 0 17 -73 l0 -80 -77 -20 c-153 -40 -198 -46 -353 -46 -169 1
-251 14 -402 64 -189 63 -336 156 -489 309 -190 190 -297 387 -355 656 -24
111 -24 369 0 480 50 232 146 429 291 595 79 92 85 134 20 164 -47 23 -72 10
-139 -69 -161 -190 -265 -402 -318 -648 -31 -146 -31 -418 0 -564 174 -805
960 -1298 1751 -1097 l95 24 26 -24 c14 -14 38 -30 53 -35 19 -8 330 -11 973
-11 l945 0 24 25 c32 31 32 69 0 100 l-24 25 -936 0 -935 0 0 155 0 155 1275
0 1275 0 0 -155 0 -155 -210 0 c-197 0 -211 -1 -230 -20 -31 -31 -30 -73 3
-108 21 -23 22 -23 254 -20 254 3 257 4 307 72 20 26 21 40 20 224 0 108 -1
211 -2 227 -1 17 1 112 4 212 l5 182 159 3 c173 3 186 7 234 72 20 26 21 40
20 224 -2 233 -1 219 -1 467 0 107 0 211 0 230 0 19 0 123 0 230 0 248 -1 234
1 467 1 184 0 198 -20 224 -31 43 -67 65 -112 71 l-41 5 -3 179 c-3 161 -5
180 -24 205 -43 59 -68 69 -174 72 l-99 4 -3 178 c-3 195 -6 205 -72 254 -27
21 -37 21 -867 24 l-840 2 -24 -24 c-34 -34 -33 -78 1 -105 27 -21 32 -21 840
-21 l814 0 0 -155 0 -155 -1275 0 -1275 0 0 155 0 155 319 0 c176 0 327 3 336
6 44 17 48 99 7 130 -25 19 -674 19 -717 0z m2905 -751 l0 -155 -1275 0 -1275
0 0 155 0 155 1275 0 1275 0 0 -155z m180 -460 l0 -155 -1275 0 -1275 0 0 155
0 155 1275 0 1275 0 0 -155z m-3414 -216 c265 -37 515 -189 664 -405 l51 -74
4 -213 c1 -116 3 -223 3 -237 0 -14 -2 -107 -4 -207 l-5 -183 -151 0 c-173 0
-208 -12 -247 -81 -21 -37 -22 -49 -19 -239 l3 -200 -45 -19 c-272 -115 -577
-103 -837 34 -477 252 -659 837 -408 1312 192 364 588 568 991 512z m3414
-244 l0 -155 -1275 0 -1275 0 0 155 0 155 1275 0 1275 0 0 -155z m0 -460 l0
-155 -1275 0 -1275 0 0 155 0 155 1275 0 1275 0 0 -155z m0 -460 l0 -155
-1275 0 -1275 0 0 155 0 155 1275 0 1275 0 0 -155z m-420 -460 l0 -155 -1275
0 -1275 0 0 155 0 155 1275 0 1275 0 0 -155z"/>
<path d="M1346 2079 c-21 -17 -26 -29 -26 -67 0 -46 -1 -47 -45 -65 -55 -23
-117 -83 -147 -145 -29 -60 -32 -179 -5 -229 25 -47 79 -96 142 -127 l55 -28
0 -189 c0 -145 -3 -189 -12 -189 -7 0 -42 14 -76 30 -80 38 -114 38 -141 4
-24 -31 -26 -43 -9 -79 14 -31 135 -94 196 -102 l42 -6 0 -48 c0 -39 4 -51 26
-68 60 -47 124 -7 124 76 l0 48 48 18 c71 24 135 86 174 165 28 57 33 76 32
142 0 46 -7 89 -17 112 -27 63 -101 133 -173 164 l-64 27 0 143 c0 162 -5 155
79 102 50 -31 59 -33 95 -17 33 15 50 57 37 92 -12 31 -95 87 -161 110 -43 14
-45 17 -51 62 -9 78 -67 108 -123 64z m-26 -385 l0 -106 -22 14 c-56 37 -61
109 -12 168 14 16 28 30 30 30 2 0 4 -48 4 -106z m233 -402 c24 -40 24 -109 1
-153 -17 -33 -61 -79 -75 -79 -5 0 -9 68 -9 151 l0 151 32 -19 c18 -10 41 -33
51 -51z"/>
</g>
</svg>
