<?xml version="1.0" standalone="no"?>
<!DOCTYPE svg PUBLIC "-//W3C//DTD SVG 20010904//EN"
 "http://www.w3.org/TR/2001/REC-SVG-20010904/DTD/svg10.dtd">
<svg version="1.0" xmlns="http://www.w3.org/2000/svg"
 width="100pt" height="100pt" viewBox="0 0 512.000000 512.000000"
 preserveAspectRatio="xMidYMid meet">

<g transform="translate(0.000000,512.000000) scale(0.100000,-0.100000)"
fill="#000000" stroke="none">
<path d="M859 4650 c-93 -16 -170 -76 -210 -164 -18 -39 -19 -87 -19 -907 l0
-865 26 -52 c29 -58 79 -106 138 -133 39 -17 81 -19 701 -19 363 0 665 -4 671
-8 7 -4 65 -101 129 -217 122 -218 142 -248 187 -271 35 -18 121 -18 156 0 45
23 65 53 187 271 64 116 122 213 129 217 6 4 308 8 672 8 l660 0 52 26 c58 29
106 79 133 138 18 39 19 86 19 906 0 825 -1 867 -19 906 -28 62 -84 119 -144
145 -50 23 -63 24 -274 24 -216 0 -223 -1 -244 -22 -27 -27 -29 -75 -5 -102
16 -18 35 -20 234 -23 193 -3 220 -5 245 -22 60 -40 57 0 57 -906 0 -899 2
-871 -53 -902 -17 -10 -174 -14 -697 -18 -749 -6 -711 -2 -763 -72 -14 -18
-75 -124 -137 -235 -82 -149 -117 -203 -130 -203 -13 0 -48 54 -130 203 -62
111 -123 217 -137 235 -52 70 -14 66 -763 72 -523 4 -680 8 -697 18 -55 31
-53 3 -53 904 0 807 1 834 20 865 10 17 29 38 42 45 19 10 282 14 1366 18
1315 5 1344 5 1358 24 20 28 17 69 -5 97 l-19 24 -1319 1 c-725 1 -1339 -2
-1364 -6z"/>
<path d="M1545 3955 l-25 -24 0 -351 0 -351 25 -24 c24 -24 27 -25 185 -25
158 0 161 1 185 25 30 30 32 64 4 99 -20 25 -23 26 -135 26 l-114 0 0 90 0 90
105 0 c94 0 106 2 125 22 22 24 26 58 10 88 -15 27 -64 40 -156 40 l-84 0 0
85 0 85 114 0 c112 0 115 1 135 26 28 35 26 69 -4 99 -24 24 -27 25 -185 25
-158 0 -161 -1 -185 -25z"/>
<path d="M2119 3951 l-29 -29 0 -336 c0 -354 2 -375 47 -395 34 -15 47 -14 76
10 l27 20 2 221 3 220 161 -228 c88 -126 172 -235 186 -243 32 -19 80 -1 97
35 15 34 15 673 0 707 -11 24 -47 47 -73 47 -7 0 -25 -9 -39 -21 l-27 -20 -2
-221 -3 -222 -150 215 c-82 118 -162 226 -177 242 -34 35 -62 34 -99 -2z"/>
<path d="M3155 3967 c-121 -31 -213 -109 -268 -225 -29 -61 -32 -76 -32 -163
0 -90 2 -99 38 -171 59 -120 155 -192 291 -220 72 -14 172 2 232 37 98 57 168
172 181 295 12 117 -15 140 -165 140 -132 0 -172 -20 -172 -84 0 -47 31 -66
110 -66 79 0 83 -5 50 -69 -76 -150 -287 -142 -385 14 -26 43 -30 57 -30 124
0 65 4 83 28 124 35 59 92 101 158 117 62 15 115 7 180 -26 52 -26 78 -25 112
4 27 23 22 78 -9 107 -61 57 -219 87 -319 62z"/>
<path d="M390 1679 c-60 -12 -118 -54 -155 -114 -29 -46 -30 -54 -34 -177 l-3
-128 -43 0 c-47 0 -95 -27 -129 -73 -18 -24 -21 -46 -24 -148 -4 -143 12 -191
77 -227 l39 -22 1056 0 1056 0 10 -27 c19 -53 35 -76 69 -102 34 -26 36 -26
237 -29 175 -3 209 -1 239 14 40 19 77 63 92 109 9 29 11 30 86 33 l75 3 4
-140 c3 -129 5 -142 25 -162 31 -31 62 -27 186 25 l109 46 106 -45 c125 -53
162 -56 191 -19 19 24 21 40 21 160 l0 134 289 0 290 0 20 26 c26 33 27 65 2
95 l-19 24 -291 3 -291 3 0 84 0 85 645 0 645 0 0 -84 0 -85 -216 -3 c-213 -3
-216 -3 -235 -27 -25 -30 -24 -62 2 -95 l20 -26 231 0 c218 0 232 1 269 22 65
36 81 84 77 227 -3 102 -6 124 -24 148 -34 46 -82 73 -129 73 l-43 0 -4 129
c-3 122 -5 131 -34 177 -38 63 -95 101 -166 114 -37 7 -386 10 -1020 8 l-963
-3 -50 -23 c-27 -13 -67 -36 -87 -53 l-38 -30 -37 30 c-21 17 -60 40 -88 53
l-50 23 -630 3 c-424 2 -642 0 -666 -7 -22 -7 -40 -20 -47 -36 -17 -36 -15
-48 8 -78 l21 -26 648 -3 647 -3 41 -27 c55 -36 73 -79 73 -172 l0 -76 -1065
0 -1065 0 0 100 c0 117 13 152 61 169 19 6 104 11 205 11 165 0 174 1 194 22
37 40 22 98 -31 117 -38 13 -322 13 -389 0z m4319 -150 c48 -17 61 -52 61
-169 l0 -100 -1065 0 -1065 0 0 76 c0 114 38 174 124 194 53 13 1908 12 1945
-1z m-1669 -504 l0 -85 -115 0 c-108 0 -117 -2 -139 -23 -13 -13 -31 -49 -40
-80 l-17 -57 -169 0 -169 0 -17 57 c-9 31 -27 67 -40 80 l-23 23 -1081 0
-1080 0 0 85 0 85 1445 0 1445 0 0 -85z m490 -144 l0 -229 -84 34 -84 34 -76
-30 c-42 -16 -81 -30 -86 -30 -6 0 -10 86 -10 225 l0 225 170 0 170 0 0 -229z"/>
</g>
</svg>
