<?xml version="1.0" standalone="no"?>
<!DOCTYPE svg PUBLIC "-//W3C//DTD SVG 20010904//EN"
 "http://www.w3.org/TR/2001/REC-SVG-20010904/DTD/svg10.dtd">
<svg version="1.0" xmlns="http://www.w3.org/2000/svg"
 width="100.000000pt" height="100.000000pt" viewBox="0 0 512.000000 512.000000"
 preserveAspectRatio="xMidYMid meet">

<g transform="translate(0.000000,512.000000) scale(0.100000,-0.100000)"
fill="#000000" stroke="none">
<path d="M949 5101 c-144 -46 -239 -161 -259 -314 -13 -96 -13 -4358 0 -4454
15 -118 73 -211 168 -271 103 -66 -3 -62 1703 -62 1524 0 1548 0 1612 20 115
36 202 123 244 244 15 44 18 88 18 302 0 234 -1 253 -19 273 -26 29 -86 29
-112 0 -17 -19 -19 -44 -24 -283 l-5 -263 -27 -41 c-15 -22 -49 -54 -75 -69
l-48 -28 -1556 -3 -1556 -2 -54 28 c-34 17 -65 44 -84 71 l-30 43 -3 1859 -2
1859 175 0 175 0 0 -35 c0 -61 21 -133 51 -174 87 -121 285 -114 364 14 24 39
30 61 33 122 l4 73 918 0 918 0 4 -73 c3 -61 9 -83 33 -122 79 -128 277 -135
364 -14 30 41 51 113 51 174 l0 35 175 0 175 0 0 -1425 c0 -1556 -3 -1486 56
-1501 43 -11 77 7 91 46 14 42 18 3542 4 3654 -18 139 -107 259 -231 309 l-55
22 -1209 3 c-1320 3 -1247 6 -1262 -53 -6 -25 -8 -25 -105 -25 -83 0 -99 3
-99 15 0 9 -11 27 -25 40 -24 25 -24 25 -232 24 -171 0 -218 -3 -264 -18z
m515 -712 l26 -20 0 -229 c0 -202 -2 -230 -18 -249 -22 -28 -75 -31 -102 -6
-19 17 -20 31 -20 252 0 220 1 234 20 253 26 26 60 25 94 -1z m2286 1 c19 -19
20 -33 20 -253 0 -222 -1 -235 -20 -252 -29 -26 -79 -24 -102 4 -16 21 -18 45
-18 251 l0 229 26 20 c34 26 68 27 94 1z"/>
<path d="M2522 3818 c-28 -14 -46 -78 -38 -138 6 -48 41 -90 76 -90 35 0 70
42 76 90 14 108 -39 174 -114 138z"/>
<path d="M2130 3702 c-38 -38 -38 -55 3 -122 41 -69 72 -88 115 -71 48 20 57
61 28 119 -32 64 -56 90 -88 98 -22 5 -33 0 -58 -24z"/>
<path d="M2911 3717 c-13 -6 -39 -39 -58 -73 -29 -53 -32 -65 -22 -91 14 -42
61 -62 98 -42 29 16 91 113 91 142 0 21 -52 77 -72 77 -7 0 -24 -6 -37 -13z"/>
<path d="M2448 3474 c-237 -57 -403 -279 -385 -515 17 -215 148 -385 346 -445
205 -62 441 14 555 178 141 206 121 470 -49 644 -123 126 -301 179 -467 138z
m263 -176 c268 -124 257 -506 -18 -630 -73 -34 -199 -32 -274 3 -79 37 -133
90 -171 167 -29 59 -33 76 -32 147 1 110 30 183 100 252 74 72 133 94 249 90
73 -2 101 -7 146 -29z"/>
<path d="M1874 3440 c-26 -10 -54 -48 -54 -71 0 -27 35 -62 92 -93 50 -27 58
-28 86 -17 18 7 35 25 43 43 17 41 -1 73 -62 109 -59 34 -79 40 -105 29z"/>
<path d="M3165 3424 c-54 -27 -95 -66 -95 -89 0 -30 24 -64 53 -76 27 -11 35
-10 85 17 90 48 112 91 70 138 -34 37 -57 39 -113 10z"/>
<path d="M1742 3037 c-27 -29 -28 -67 -3 -98 15 -19 30 -24 88 -27 62 -4 72
-2 98 20 34 29 38 77 10 108 -15 17 -31 20 -95 20 -67 0 -79 -3 -98 -23z"/>
<path d="M3187 3043 c-8 -10 -19 -30 -22 -45 -6 -22 -1 -33 24 -59 31 -30 34
-31 103 -27 59 3 73 8 89 27 26 32 24 73 -4 99 -20 19 -35 22 -99 22 -59 0
-78 -4 -91 -17z"/>
<path d="M1890 2688 c-65 -39 -83 -74 -59 -116 8 -15 27 -31 42 -36 51 -18
177 62 177 113 0 10 -9 30 -21 45 -28 36 -71 34 -139 -6z"/>
<path d="M3091 2694 c-12 -15 -21 -34 -21 -44 0 -29 36 -65 94 -96 45 -24 59
-27 83 -18 36 12 59 58 47 93 -12 33 -107 91 -150 91 -23 0 -39 -8 -53 -26z"/>
<path d="M2191 2467 c-14 -6 -40 -37 -58 -67 -38 -62 -38 -102 -2 -132 47 -39
98 -12 142 74 22 43 26 60 18 79 -17 46 -61 66 -100 46z"/>
<path d="M2870 2467 c-14 -7 -31 -25 -38 -40 -12 -26 -11 -34 14 -84 44 -86
92 -113 141 -78 37 26 39 68 4 129 -45 77 -75 96 -121 73z"/>
<path d="M2506 2361 c-45 -49 -25 -193 28 -207 72 -18 113 36 103 134 -7 67
-28 92 -77 92 -24 0 -43 -7 -54 -19z"/>
<path d="M1274 1991 c-17 -10 -42 -34 -55 -53 -23 -32 -24 -38 -27 -278 -2
-155 1 -258 7 -281 16 -52 79 -106 133 -114 24 -4 144 -5 268 -3 211 3 227 4
260 25 20 12 46 40 58 62 22 40 23 46 20 300 -3 289 -3 288 -78 339 -32 21
-40 22 -294 22 -239 0 -264 -2 -292 -19z m516 -350 l0 -218 -207 -7 c-115 -4
-216 -4 -225 -1 -16 7 -18 27 -18 226 l0 219 225 0 225 0 0 -219z"/>
<path d="M2249 1987 c-19 -12 -44 -42 -56 -67 -22 -42 -23 -55 -23 -281 0
-143 4 -249 11 -266 16 -44 67 -90 113 -103 28 -8 118 -10 276 -8 226 3 236 4
273 27 21 12 47 41 58 63 19 37 20 55 17 298 -3 288 -3 287 -78 338 -32 21
-40 22 -295 22 -255 0 -263 -1 -296 -23z m521 -346 l0 -218 -207 -7 c-115 -4
-216 -4 -225 -1 -16 7 -18 27 -18 219 0 117 3 216 7 219 3 4 105 7 225 7 l218
0 0 -219z"/>
<path d="M3260 1988 c-75 -51 -75 -50 -78 -339 -3 -254 -2 -260 20 -300 12
-22 38 -50 58 -62 33 -21 49 -22 260 -25 124 -2 244 -1 268 3 54 8 117 62 133
114 6 23 9 126 7 282 l-3 246 -28 36 c-50 66 -57 67 -345 67 -252 0 -260 -1
-292 -22z m518 -349 l2 -216 -214 -8 c-118 -4 -220 -4 -225 0 -7 4 -11 82 -11
226 l0 219 223 -2 222 -3 3 -216z"/>
<path d="M1306 1155 c-50 -18 -94 -60 -107 -105 -6 -21 -9 -130 -7 -282 3
-274 3 -275 78 -326 32 -21 40 -22 295 -22 255 0 263 1 295 23 74 50 75 51 78
320 2 133 0 257 -3 275 -9 50 -66 107 -120 121 -66 17 -460 14 -509 -4z m484
-365 l0 -220 -225 0 -225 0 0 220 0 220 225 0 225 0 0 -220z"/>
<path d="M2286 1155 c-52 -18 -94 -61 -107 -108 -6 -24 -9 -133 -7 -281 l3
-243 28 -36 c50 -66 57 -67 345 -67 253 0 260 1 293 23 18 12 44 38 56 56 22
33 23 40 23 290 0 241 -1 258 -21 290 -28 46 -56 68 -106 80 -64 17 -459 13
-507 -4z m484 -365 l0 -220 -225 0 -225 0 0 220 0 220 225 0 225 0 0 -220z"/>
<path d="M3300 1158 c-46 -13 -98 -63 -111 -108 -6 -21 -9 -130 -7 -282 3
-274 3 -275 78 -326 32 -21 40 -22 295 -22 255 0 263 1 295 23 75 50 75 51 78
325 2 157 -1 260 -7 284 -14 44 -67 93 -118 107 -48 14 -455 13 -503 -1z m478
-365 l-3 -218 -222 -3 -223 -2 0 220 0 220 225 0 225 0 -2 -217z"/>
</g>
</svg>
